<svg xmlns="http://www.w3.org/2000/svg" viewBox="0 0 65.1 70"><path d="M30,2.5H40A2.48,2.48,0,0,1,42.5,5V15A2.48,2.48,0,0,1,40,17.5H30A2.48,2.48,0,0,1,27.5,15V5A2.48,2.48,0,0,1,30,2.5Z" transform="translate(-4.9 0)" style="fill:#6e426d"/><path d="M40,5V15H30V5H40m0-5H30a5,5,0,0,0-5,5V15a5,5,0,0,0,5,5H40a5,5,0,0,0,5-5V5A5,5,0,0,0,40,0Z" transform="translate(-4.9 0)" style="fill:#c88cbd"/><path d="M55,2.5H65A2.48,2.48,0,0,1,67.5,5V15A2.48,2.48,0,0,1,65,17.5H55A2.48,2.48,0,0,1,52.5,15V5A2.48,2.48,0,0,1,55,2.5Z" transform="translate(-4.9 0)" style="fill:#6e426d"/><path d="M65,5V15H55V5H65m0-5H55a5,5,0,0,0-5,5V15a5,5,0,0,0,5,5H65a5,5,0,0,0,5-5V5A5,5,0,0,0,65,0Z" transform="translate(-4.9 0)" style="fill:#c88cbd"/><path d="M55,27.5H65A2.48,2.48,0,0,1,67.5,30V40A2.48,2.48,0,0,1,65,42.5H55A2.48,2.48,0,0,1,52.5,40V30A2.48,2.48,0,0,1,55,27.5Z" transform="translate(-4.9 0)" style="fill:#6e426d"/><path d="M65,30V40H55V30H65m0-5H55a5,5,0,0,0-5,5V40a5,5,0,0,0,5,5H65a5,5,0,0,0,5-5V30A5,5,0,0,0,65,25Z" transform="translate(-4.9 0)" style="fill:#c88cbd"/><path d="M30,52.5H40A2.48,2.48,0,0,1,42.5,55V65A2.48,2.48,0,0,1,40,67.5H30A2.48,2.48,0,0,1,27.5,65V55A2.48,2.48,0,0,1,30,52.5Z" transform="translate(-4.9 0)" style="fill:#6e426d"/><path d="M40,55V65H30V55H40m0-5H30a5,5,0,0,0-5,5V65a5,5,0,0,0,5,5H40a5,5,0,0,0,5-5V55A5,5,0,0,0,40,50Z" transform="translate(-4.9 0)" style="fill:#c88cbd"/><rect x="0.1" y="5" width="10.2" height="10.2" style="fill:#c88cbd"/><rect x="25" y="29.9" width="10.2" height="10.2" style="fill:#c88cbd"/><rect y="29.8" width="10.2" height="10.2" style="fill:#c88cbd"/><rect y="54.9" width="10.2" height="10.2" style="fill:#c88cbd"/></svg>